REM DIRINDEX 1\4,1\2\5,1\2\6,1\2\7,1\3\8,1\3\9,1\3\10,1\3\11
REM DIRNAME cjc108,folder01,folder02,folder03,folder04,folder05,folder06,folder07,folder08,folder09,folder10
TITLE ""
FILE "t_k_022-032.mp3" MP3
  TRACK 01 AUDIO
    TITLE "5:cjc108_0065"
    INDEX 01 00:00:00
  TRACK 02 AUDIO
    TITLE "0:"
    INDEX 01 00:00:56
  TRACK 03 AUDIO
    TITLE "6:cjc108_0066"
    INDEX 01 00:00:72
  TRACK 04 AUDIO
    TITLE "0:"
    INDEX 01 00:03:53
  TRACK 05 AUDIO
    TITLE "7:cjc108_0067"
    INDEX 01 00:03:66
  TRACK 06 AUDIO
    TITLE "0:"
    INDEX 01 00:09:38
  TRACK 07 AUDIO
    TITLE "5:cjc108_0068"
    INDEX 01 00:10:14
  TRACK 08 AUDIO
    TITLE "0:"
    INDEX 01 00:11:19
  TRACK 09 AUDIO
    TITLE "6:cjc108_0069"
    INDEX 01 00:11:35
  TRACK 10 AUDIO
    TITLE "0:"
    INDEX 01 00:12:52
  TRACK 11 AUDIO
    TITLE "7:cjc108_0070"
    INDEX 01 00:12:63
  TRACK 12 AUDIO
    TITLE "0:"
    INDEX 01 00:18:60
  TRACK 13 AUDIO
    TITLE "5:cjc108_0071"
    INDEX 01 00:19:48
  TRACK 14 AUDIO
    TITLE "0:"
    INDEX 01 00:20:49
  TRACK 15 AUDIO
    TITLE "6:cjc108_0072"
    INDEX 01 00:20:71
  TRACK 16 AUDIO
    TITLE "0:"
    INDEX 01 00:24:43
  TRACK 17 AUDIO
    TITLE "7:cjc108_0073"
    INDEX 01 00:24:63
  TRACK 18 AUDIO
    TITLE "0:"
    INDEX 01 00:30:10
  TRACK 19 AUDIO
    TITLE "5:cjc108_0074"
    INDEX 01 00:31:08
  TRACK 20 AUDIO
    TITLE "0:"
    INDEX 01 00:32:23
  TRACK 21 AUDIO
    TITLE "6:cjc108_0075"
    INDEX 01 00:32:48
  TRACK 22 AUDIO
    TITLE "0:"
    INDEX 01 00:33:58
  TRACK 23 AUDIO
    TITLE "7:cjc108_0076"
    INDEX 01 00:34:12
  TRACK 24 AUDIO
    TITLE "0:"
    INDEX 01 00:41:26
  TRACK 25 AUDIO
    TITLE "5:cjc108_0077"
    INDEX 01 00:42:06
  TRACK 26 AUDIO
    TITLE "0:"
    INDEX 01 00:43:11
  TRACK 27 AUDIO
    TITLE "6:cjc108_0078"
    INDEX 01 00:43:31
  TRACK 28 AUDIO
    TITLE "0:"
    INDEX 01 00:46:31
  TRACK 29 AUDIO
    TITLE "7:cjc108_0079"
    INDEX 01 00:46:51
  TRACK 30 AUDIO
    TITLE "0:"
    INDEX 01 00:52:02
  TRACK 31 AUDIO
    TITLE "5:cjc108_0080"
    INDEX 01 00:52:59
  TRACK 32 AUDIO
    TITLE "0:"
    INDEX 01 00:53:57
  TRACK 33 AUDIO
    TITLE "6:cjc108_0081"
    INDEX 01 00:54:01
  TRACK 34 AUDIO
    TITLE "0:"
    INDEX 01 00:56:65
  TRACK 35 AUDIO
    TITLE "7:cjc108_0082"
    INDEX 01 00:57:03
  TRACK 36 AUDIO
    TITLE "0:"
    INDEX 01 01:00:55
  TRACK 37 AUDIO
    TITLE "5:cjc108_0083"
    INDEX 01 01:01:46
  TRACK 38 AUDIO
    TITLE "0:"
    INDEX 01 01:02:44
  TRACK 39 AUDIO
    TITLE "6:cjc108_0084"
    INDEX 01 01:02:63
  TRACK 40 AUDIO
    TITLE "0:"
    INDEX 01 01:04:70
  TRACK 41 AUDIO
    TITLE "7:cjc108_0085"
    INDEX 01 01:05:26
  TRACK 42 AUDIO
    TITLE "0:"
    INDEX 01 01:08:29
  TRACK 43 AUDIO
    TITLE "5:cjc108_0086"
    INDEX 01 01:09:28
  TRACK 44 AUDIO
    TITLE "0:"
    INDEX 01 01:10:22
  TRACK 45 AUDIO
    TITLE "6:cjc108_0087"
    INDEX 01 01:10:45
  TRACK 46 AUDIO
    TITLE "0:"
    INDEX 01 01:11:52
  TRACK 47 AUDIO
    TITLE "7:cjc108_0088"
    INDEX 01 01:11:74
  TRACK 48 AUDIO
    TITLE "0:"
    INDEX 01 01:15:46
  TRACK 49 AUDIO
    TITLE "5:cjc108_0089"
    INDEX 01 01:16:42
  TRACK 50 AUDIO
    TITLE "0:"
    INDEX 01 01:17:37
  TRACK 51 AUDIO
    TITLE "6:cjc108_0090"
    INDEX 01 01:17:69
  TRACK 52 AUDIO
    TITLE "0:"
    INDEX 01 01:20:38
  TRACK 53 AUDIO
    TITLE "7:cjc108_0091"
    INDEX 01 01:20:57
  TRACK 54 AUDIO
    TITLE "0:"
    INDEX 01 01:24:28
  TRACK 55 AUDIO
    TITLE "5:cjc108_0092"
    INDEX 01 01:25:27
  TRACK 56 AUDIO
    TITLE "0:"
    INDEX 01 01:26:32
  TRACK 57 AUDIO
    TITLE "6:cjc108_0093"
    INDEX 01 01:26:52
  TRACK 58 AUDIO
    TITLE "0:"
    INDEX 01 01:27:63
  TRACK 59 AUDIO
    TITLE "7:cjc108_0094"
    INDEX 01 01:28:04
  TRACK 60 AUDIO
    TITLE "0:"
    INDEX 01 01:31:26
  TRACK 61 AUDIO
    TITLE "5:cjc108_0095"
    INDEX 01 01:32:17
  TRACK 62 AUDIO
    TITLE "0:"
    INDEX 01 01:33:33
  TRACK 63 AUDIO
    TITLE "6:cjc108_0096"
    INDEX 01 01:33:50
  TRACK 64 AUDIO
    TITLE "0:"
    INDEX 01 01:36:03
  TRACK 65 AUDIO
    TITLE "7:cjc108_0097"
    INDEX 01 01:36:23
  TRACK 66 AUDIO
    TITLE "0:"
    INDEX 01 01:40:25
